# xmcd
#
# Track frame offsets:
#	183
#	10795
#	63530
#	83733
#	106333
#	113913
#	133613
#
# Disc length: 2417 seconds
#
# Revision: 28
# Processed by: cddbd v1.5.2PL0 Copyright (c) Steve Scherf et al.
# Submitted via: audiograbber 1.83.01
#
DISCID=53096f07
DTITLE=Enigma - MCMXC a.D.
DYEAR=1990
DGENRE=New Age
TTITLE0=The Voice Of Enigma
TTITLE1=Principles Of Lust
TTITLE2=Callas Went Away
TTITLE3=Mea Culpa
TTITLE4=The Voice and The Snake
TTITLE5=Knocking On Forbidden Doors
TTITLE6=Back To The Rivers Of Belief
EXTD=
EXTT0=
EXTT1=A: Sadeness B: Find Love C: Sadeness (Reprise)
EXTT2=
EXTT3=
EXTT4=
EXTT5=
EXTT6=A: Way To Eternity B: Hallelujah C: The Rivers Of Belief
PLAYORDER=
